<svg width="36" height="31" viewBox="0 0 36 31" fill="none" xmlns="http://www.w3.org/2000/svg">
<path id="Vector" d="M36 28.8133C36 29.1448 35.8736 29.4627 35.6485 29.6971C35.4235 29.9315 35.1183 30.0632 34.8 30.0632H1.2C0.88174 30.0632 0.576515 29.9315 0.351472 29.6971C0.126428 29.4627 0 29.1448 0 28.8133C0 28.4818 0.126428 28.1639 0.351472 27.9294C0.576515 27.695 0.88174 27.5633 1.2 27.5633H34.8C35.1183 27.5633 35.4235 27.695 35.6485 27.9294C35.8736 28.1639 36 28.4818 36 28.8133ZM1.245 11.6578C1.17349 11.3959 1.18607 11.1168 1.28084 10.8629C1.3756 10.6091 1.54737 10.3945 1.77 10.2517L17.37 0.252124C17.5588 0.128702 17.7771 0.0632324 18 0.0632324C18.2229 0.0632324 18.4412 0.128702 18.63 0.252124L34.23 10.2517C34.4517 10.3947 34.6225 10.6091 34.7168 10.8624C34.811 11.1157 34.8235 11.394 34.7523 11.6553C34.6811 11.9167 34.5301 12.1467 34.3222 12.3107C34.1143 12.4746 33.8608 12.5636 33.6 12.564H30V22.5636H32.4C32.7183 22.5636 33.0235 22.6953 33.2485 22.9297C33.4736 23.1641 33.6 23.482 33.6 23.8135C33.6 24.145 33.4736 24.463 33.2485 24.6974C33.0235 24.9318 32.7183 25.0635 32.4 25.0635H3.6C3.28174 25.0635 2.97652 24.9318 2.75147 24.6974C2.52643 24.463 2.4 24.145 2.4 23.8135C2.4 23.482 2.52643 23.1641 2.75147 22.9297C2.97652 22.6953 3.28174 22.5636 3.6 22.5636H6V12.564H2.4C2.13907 12.5643 1.88516 12.476 1.67674 12.3125C1.46832 12.149 1.31676 11.9192 1.245 11.6578ZM20.4 21.3136C20.4 21.6451 20.5264 21.9631 20.7515 22.1975C20.9765 22.4319 21.2817 22.5636 21.6 22.5636C21.9183 22.5636 22.2235 22.4319 22.4485 22.1975C22.6736 21.9631 22.8 21.6451 22.8 21.3136V13.814C22.8 13.4825 22.6736 13.1646 22.4485 12.9302C22.2235 12.6957 21.9183 12.564 21.6 12.564C21.2817 12.564 20.9765 12.6957 20.7515 12.9302C20.5264 13.1646 20.4 13.4825 20.4 13.814V21.3136ZM13.2 21.3136C13.2 21.6451 13.3264 21.9631 13.5515 22.1975C13.7765 22.4319 14.0817 22.5636 14.4 22.5636C14.7183 22.5636 15.0235 22.4319 15.2485 22.1975C15.4736 21.9631 15.6 21.6451 15.6 21.3136V13.814C15.6 13.4825 15.4736 13.1646 15.2485 12.9302C15.0235 12.6957 14.7183 12.564 14.4 12.564C14.0817 12.564 13.7765 12.6957 13.5515 12.9302C13.3264 13.1646 13.2 13.4825 13.2 13.814V21.3136Z" fill="currentColor"/>
</svg>
