<svg width="34" height="27" viewBox="0 0 34 27" fill="none" xmlns="http://www.w3.org/2000/svg">
<path id="Vector" d="M32.6923 0.0632324H1.30769C0.960871 0.0632324 0.628254 0.200197 0.383014 0.443994C0.137774 0.687791 0 1.01845 0 1.36323V23.4632C0 24.1528 0.275549 24.8141 0.766028 25.3017C1.25651 25.7893 1.92174 26.0632 2.61538 26.0632H31.3846C32.0783 26.0632 32.7435 25.7893 33.234 25.3017C33.7244 24.8141 34 24.1528 34 23.4632V1.36323C34 1.01845 33.8622 0.687791 33.617 0.443994C33.3717 0.200197 33.0391 0.0632324 32.6923 0.0632324ZM2.61538 10.4632H9.15385V15.6632H2.61538V10.4632ZM11.7692 10.4632H31.3846V15.6632H11.7692V10.4632ZM2.61538 18.2632H9.15385V23.4632H2.61538V18.2632ZM31.3846 23.4632H11.7692V18.2632H31.3846V23.4632Z" fill="currentColor"/>
</svg>
