<svg width="38" height="27" viewBox="0 0 38 27" fill="none" xmlns="http://www.w3.org/2000/svg">
<path id="Vector" d="M35.2857 0.0632324H2.71429C1.99441 0.0632324 1.30402 0.337331 0.794996 0.825231C0.285968 1.31313 0 1.97486 0 2.66486V8.01445V23.4616C0 24.1516 0.285968 24.8133 0.794996 25.3012C1.30402 25.7891 1.99441 26.0632 2.71429 26.0632H35.2857C36.0056 26.0632 36.696 25.7891 37.205 25.3012C37.714 24.8133 38 24.1516 38 23.4616V2.66486C38 1.97486 37.714 1.31313 37.205 0.825231C36.696 0.337331 36.0056 0.0632324 35.2857 0.0632324ZM20.3571 20.8762H17.6429C17.2829 20.8762 16.9377 20.7392 16.6832 20.4952C16.4287 20.2513 16.2857 19.9204 16.2857 19.5754C16.2857 19.2304 16.4287 18.8996 16.6832 18.6556C16.9377 18.4117 17.2829 18.2746 17.6429 18.2746H20.3571C20.7171 18.2746 21.0623 18.4117 21.3168 18.6556C21.5713 18.8996 21.7143 19.2304 21.7143 19.5754C21.7143 19.9204 21.5713 20.2513 21.3168 20.4952C21.0623 20.7392 20.7171 20.8762 20.3571 20.8762ZM31.2143 20.8762H25.7857C25.4258 20.8762 25.0806 20.7392 24.8261 20.4952C24.5716 20.2513 24.4286 19.9204 24.4286 19.5754C24.4286 19.2304 24.5716 18.8996 24.8261 18.6556C25.0806 18.4117 25.4258 18.2746 25.7857 18.2746H31.2143C31.5742 18.2746 31.9194 18.4117 32.1739 18.6556C32.4284 18.8996 32.5714 19.2304 32.5714 19.5754C32.5714 19.9204 32.4284 20.2513 32.1739 20.4952C31.9194 20.7392 31.5742 20.8762 31.2143 20.8762ZM2.71429 6.71364V2.66486H35.2857V6.71364H2.71429Z" fill="currentColor"/>
</svg>
