<svg width="38" height="39" viewBox="0 0 38 39" fill="none" xmlns="http://www.w3.org/2000/svg">
<path id="Vector" d="M19 0.0632324C15.2422 0.0632324 11.5687 1.17756 8.44417 3.26531C5.31964 5.35306 2.88436 8.32045 1.4463 11.7922C0.0082324 15.264 -0.368031 19.0843 0.365088 22.7699C1.09821 26.4556 2.90778 29.8411 5.56498 32.4983C8.22218 35.1555 11.6077 36.965 15.2933 37.6981C18.9789 38.4313 22.7992 38.055 26.271 36.6169C29.7428 35.1789 32.7102 32.7436 34.7979 29.6191C36.8857 26.4945 38 22.8211 38 19.0632C37.9903 14.0271 35.9855 9.19997 32.4244 5.63887C28.8633 2.07777 24.0361 0.0728895 19 0.0632324ZM21.1923 27.8325H20.4615V29.294C20.4615 29.6816 20.3076 30.0534 20.0335 30.3275C19.7594 30.6016 19.3876 30.7555 19 30.7555C18.6124 30.7555 18.2406 30.6016 17.9665 30.3275C17.6924 30.0534 17.5385 29.6816 17.5385 29.294V27.8325H14.6154C14.2278 27.8325 13.856 27.6785 13.5819 27.4044C13.3078 27.1303 13.1539 26.7585 13.1539 26.3709C13.1539 25.9833 13.3078 25.6115 13.5819 25.3375C13.856 25.0634 14.2278 24.9094 14.6154 24.9094H21.1923C21.7737 24.9094 22.3314 24.6784 22.7425 24.2673C23.1536 23.8561 23.3846 23.2985 23.3846 22.7171C23.3846 22.1356 23.1536 21.578 22.7425 21.1669C22.3314 20.7557 21.7737 20.5248 21.1923 20.5248H16.8077C15.451 20.5248 14.1499 19.9858 13.1906 19.0265C12.2313 18.0672 11.6923 16.7661 11.6923 15.4094C11.6923 14.0527 12.2313 12.7516 13.1906 11.7923C14.1499 10.8329 15.451 10.294 16.8077 10.294H17.5385V8.83246C17.5385 8.44484 17.6924 8.07309 17.9665 7.799C18.2406 7.52491 18.6124 7.37092 19 7.37092C19.3876 7.37092 19.7594 7.52491 20.0335 7.799C20.3076 8.07309 20.4615 8.44484 20.4615 8.83246V10.294H23.3846C23.7722 10.294 24.144 10.448 24.4181 10.7221C24.6922 10.9962 24.8462 11.3679 24.8462 11.7555C24.8462 12.1432 24.6922 12.5149 24.4181 12.789C24.144 13.0631 23.7722 13.2171 23.3846 13.2171H16.8077C16.2263 13.2171 15.6686 13.4481 15.2575 13.8592C14.8464 14.2703 14.6154 14.8279 14.6154 15.4094C14.6154 15.9908 14.8464 16.5484 15.2575 16.9596C15.6686 17.3707 16.2263 17.6017 16.8077 17.6017H21.1923C22.549 17.6017 23.8501 18.1406 24.8094 19.1C25.7688 20.0593 26.3077 21.3604 26.3077 22.7171C26.3077 24.0738 25.7688 25.3749 24.8094 26.3342C23.8501 27.2935 22.549 27.8325 21.1923 27.8325Z" fill="currentColor"/>
</svg>
